<?xml version="1.0" encoding="UTF-8"?>
<svg id="Layer_1" data-name="Layer 1" xmlns="http://www.w3.org/2000/svg" xmlns:xlink="http://www.w3.org/1999/xlink" viewBox="0 0 600 750">
  <defs>
    <style>
      .cls-1 {
        letter-spacing: -.09em;
      }

      .cls-2 {
        letter-spacing: -.09em;
      }

      .cls-3 {
        fill: none;
      }

      .cls-3, .cls-4, .cls-5, .cls-6, .cls-7, .cls-8 {
        stroke-width: 0px;
      }

      .cls-9 {
        font-family: Helvetica-Bold, Helvetica;
      }

      .cls-9, .cls-10, .cls-11, .cls-12 {
        font-size: 28px;
      }

      .cls-9, .cls-10, .cls-11, .cls-12, .cls-13 {
        font-weight: 700;
      }

      .cls-14 {
        letter-spacing: -.05em;
      }

      .cls-10, .cls-11, .cls-12, .cls-13 {
        font-family: HelveticaNeue-Bold, 'Helvetica Neue';
      }

      .cls-10, .cls-13, .cls-5 {
        fill: gray;
      }

      .cls-11, .cls-7 {
        fill: #999;
      }

      .cls-13 {
        font-size: 19px;
      }

      .cls-6 {
        fill: #231f20;
      }

      .cls-8 {
        fill: #fff;
      }
    </style>
    <symbol id="Arrow_28" data-name="Arrow 28" viewBox="0 0 45.72 31.75">
      <g>
        <rect class="cls-3" x="0" width="45.72" height="31.75"/>
        <polygon class="cls-6" points="0 11.11 27.49 11.11 16.38 0 29.84 0 45.72 15.88 29.84 31.75 16.38 31.75 27.49 20.64 0 20.64 0 11.11"/>
      </g>
    </symbol>
  </defs>
  <g>
    <rect class="cls-8" x="164.26" y="134.5" width="297" height="47"/>
    <path class="cls-4" d="M459.76,136v44H165.76v-44h294M462.76,133H162.76v50h300v-50h0Z"/>
  </g>
  <text class="cls-12" transform="translate(205.1 164.85)"><tspan x="0" y="0">accumulato</tspan><tspan class="cls-1" x="157.05" y="0">r</tspan><tspan x="165.37" y="0">.init</tspan></text>
  <use width="45.72" height="31.75" transform="translate(322.76 184) rotate(90) scale(.57 .63)" xlink:href="#Arrow_28"/>
  <g>
    <rect class="cls-8" x="164.19" y="212.44" width="297.14" height="88.14"/>
    <path class="cls-4" d="M459.9,213.87v85.28H165.62v-85.28h294.28M462.76,211H162.76v91h300v-91h0Z"/>
  </g>
  <text class="cls-12" transform="translate(178.99 242.85)"><tspan x="0" y="0">accumulato</tspan><tspan class="cls-2" x="157.05" y="0">r</tspan><tspan x="165.36" y="0">.update</tspan></text>
  <use width="45.72" height="31.75" transform="translate(322.76 303) rotate(90) scale(.57 .63)" xlink:href="#Arrow_28"/>
  <g>
    <rect class="cls-8" x="164.26" y="331.5" width="297" height="47"/>
    <path class="cls-4" d="M459.76,333v44H165.76v-44h294M462.76,330H162.76v50h300v-50h0Z"/>
  </g>
  <text class="cls-12" transform="translate(178.47 362.18)"><tspan x="0" y="0">accumulato</tspan><tspan class="cls-2" x="157.05" y="0">r</tspan><tspan x="165.36" y="0">.extract</tspan></text>
  <g>
    <rect class="cls-8" x="164.26" y="409.5" width="297" height="47"/>
    <path class="cls-7" d="M459.76,411v44H165.76v-44h294M462.76,408H162.76v50h300v-50h0Z"/>
  </g>
  <text class="cls-11" transform="translate(186.34 440.18)"><tspan x="0" y="0">modulus switching</tspan></text>
  <use width="45.72" height="31.75" transform="translate(322.76 459) rotate(90) scale(.57 .63)" xlink:href="#Arrow_28"/>
  <g>
    <rect class="cls-8" x="164.26" y="487.5" width="297" height="47"/>
    <path class="cls-7" d="M459.76,489v44H165.76v-44h294M462.76,486H162.76v50h300v-50h0Z"/>
  </g>
  <text class="cls-11" transform="translate(220.73 518.18)"><tspan x="0" y="0">key switching</tspan></text>
  <use width="45.72" height="31.75" transform="translate(322.76 537) rotate(90) scale(.57 .63)" xlink:href="#Arrow_28"/>
  <g>
    <rect class="cls-8" x="164.26" y="565.5" width="297" height="47"/>
    <path class="cls-7" d="M459.76,567v44H165.76v-44h294M462.76,564H162.76v50h300v-50h0Z"/>
  </g>
  <text class="cls-10" transform="translate(186.34 596.18)"><tspan x="0" y="0">modulus switching</tspan></text>
  <use width="45.72" height="31.75" transform="translate(322.76 615) rotate(90) scale(.57 .63)" xlink:href="#Arrow_28"/>
  <use width="45.72" height="31.75" transform="translate(322.76 106) rotate(90) scale(.57 .63)" xlink:href="#Arrow_28"/>
  <use width="45.72" height="31.75" transform="translate(322.76 381) rotate(90) scale(.57 .63)" xlink:href="#Arrow_28"/>
  <text class="cls-12" transform="translate(264.58 94.62)"><tspan x="0" y="0">enc(m)</tspan></text>
  <text class="cls-9" transform="translate(249.96 666.95)"><tspan x="0" y="0">enc(f(m))</tspan></text>
  <text class="cls-9" transform="translate(502.51 166.62)"><tspan x="0" y="0">f</tspan></text>
  <use width="45.72" height="31.75" transform="translate(490.76 168) rotate(-180) scale(.59)" xlink:href="#Arrow_28"/>
  <text class="cls-12" transform="translate(112.16 295.67) rotate(-90)"><tspan x="0" y="0">R</tspan><tspan class="cls-14" x="20.22" y="0">L</tspan><tspan x="35.28" y="0">WE</tspan></text>
  <text class="cls-10" transform="translate(112.11 543.97) rotate(-90)"><tspan class="cls-14" x="0" y="0">L</tspan><tspan x="15.06" y="0">WE</tspan></text>
  <g>
    <rect class="cls-8" x="164.14" y="258.38" width="149.24" height="42.24"/>
    <path class="cls-4" d="M312,259.76v39.49h-146.49v-39.49h146.49M314.76,257h-152v45h152v-45h0Z"/>
  </g>
  <g>
    <rect class="cls-8" x="312.14" y="258.38" width="149.24" height="42.24"/>
    <path class="cls-4" d="M460,259.76v39.49h-146.49v-39.49h146.49M462.76,257h-152v45h152v-45h0Z"/>
  </g>
  <text class="cls-12" transform="translate(196.55 287.2)"><tspan x="0" y="0">FHEW</tspan></text>
  <text class="cls-12" transform="translate(351.24 287.95)"><tspan x="0" y="0">TFHE</tspan></text>
  <g>
    <path class="cls-5" d="M459.78,90v9h-44v-9h44M462.78,87h-50v15h50v-15h0Z"/>
    <text class="cls-13" transform="translate(413.2 85.87)"><tspan x="0" y="0">noise</tspan></text>
    <g>
      <rect class="cls-5" x="415.26" y="88.5" width="37" height="12"/>
      <path class="cls-5" d="M450.76,90v9h-34v-9h34M453.76,87h-40v15h40v-15h0Z"/>
    </g>
  </g>
  <g>
    <path class="cls-5" d="M459.96,659.28v9h-44v-9h44M462.96,656.28h-50v15h50v-15h0Z"/>
    <text class="cls-13" transform="translate(413.37 655.14)"><tspan x="0" y="0">noise</tspan></text>
    <g>
      <rect class="cls-5" x="415.43" y="657.78" width="7" height="12"/>
      <path class="cls-5" d="M420.93,659.28v9h-4v-9h4M423.93,656.28h-10v15h10v-15h0Z"/>
    </g>
  </g>
</svg>