<?xml version="1.0" encoding="UTF-8"?>
<svg id="Layer_1" data-name="Layer 1" xmlns="http://www.w3.org/2000/svg" xmlns:xlink="http://www.w3.org/1999/xlink" viewBox="0 0 600 750">
  <defs>
    <style>
      .cls-1 {
        fill: none;
      }

      .cls-1, .cls-2, .cls-3, .cls-4, .cls-5, .cls-6 {
        stroke-width: 0px;
      }

      .cls-7 {
        font-family: Helvetica-Bold, Helvetica;
      }

      .cls-7, .cls-8, .cls-9, .cls-10 {
        font-size: 28px;
      }

      .cls-7, .cls-8, .cls-9, .cls-10, .cls-11 {
        font-weight: 700;
      }

      .cls-12 {
        letter-spacing: -.05em;
      }

      .cls-8, .cls-9, .cls-10, .cls-11 {
        font-family: HelveticaNeue-Bold, 'Helvetica Neue';
      }

      .cls-8, .cls-11, .cls-3 {
        fill: gray;
      }

      .cls-9, .cls-5 {
        fill: #999;
      }

      .cls-11 {
        font-size: 19px;
      }

      .cls-4 {
        fill: #231f20;
      }

      .cls-6 {
        fill: #fff;
      }
    </style>
    <symbol id="Arrow_28" data-name="Arrow 28" viewBox="0 0 45.72 31.75">
      <g>
        <rect class="cls-1" x="0" width="45.72" height="31.75"/>
        <polygon class="cls-4" points="0 11.11 27.49 11.11 16.38 0 29.84 0 45.72 15.88 29.84 31.75 16.38 31.75 27.49 20.64 0 20.64 0 11.11"/>
      </g>
    </symbol>
  </defs>
  <g>
    <rect class="cls-6" x="164.26" y="134.5" width="297" height="242"/>
    <path class="cls-2" d="M459.76,136v239H165.76v-239h294M462.76,133H162.76v245h300v-245h0Z"/>
  </g>
  <text class="cls-10" transform="translate(228.29 260.77)"><tspan x="0" y="0">accumulator</tspan></text>
  <g>
    <rect class="cls-6" x="164.26" y="411.51" width="297" height="201"/>
    <path class="cls-5" d="M459.76,413.01v198H165.76v-198h294M462.76,410.01H162.76v204h300v-204h0Z"/>
  </g>
  <text class="cls-9" transform="translate(213.94 512.47)"><tspan x="0" y="0">key &amp; modulus</tspan><tspan x="33.98" y="33.6">switching</tspan></text>
  <use width="45.72" height="31.75" transform="translate(322.76 615) rotate(90) scale(.57 .63)" xlink:href="#Arrow_28"/>
  <use width="45.72" height="31.75" transform="translate(322.76 106) rotate(90) scale(.57 .63)" xlink:href="#Arrow_28"/>
  <use width="45.72" height="31.75" transform="translate(322.76 381) rotate(90) scale(.57 .63)" xlink:href="#Arrow_28"/>
  <text class="cls-10" transform="translate(264.58 94.62)"><tspan x="0" y="0">enc(m)</tspan></text>
  <text class="cls-7" transform="translate(249.96 666.95)"><tspan x="0" y="0">enc(f(m))</tspan></text>
  <text class="cls-7" transform="translate(502.51 166.62)"><tspan x="0" y="0">f</tspan></text>
  <use width="45.72" height="31.75" transform="translate(490.76 168) rotate(-180) scale(.59)" xlink:href="#Arrow_28"/>
  <text class="cls-10" transform="translate(112.16 295.67) rotate(-90)"><tspan x="0" y="0">R</tspan><tspan class="cls-12" x="20.22" y="0">L</tspan><tspan x="35.28" y="0">WE</tspan></text>
  <text class="cls-8" transform="translate(112.11 543.97) rotate(-90)"><tspan class="cls-12" x="0" y="0">L</tspan><tspan x="15.06" y="0">WE</tspan></text>
  <g>
    <path class="cls-3" d="M459.78,90v9h-44v-9h44M462.78,87h-50v15h50v-15h0Z"/>
    <text class="cls-11" transform="translate(413.2 85.86)"><tspan x="0" y="0">noise</tspan></text>
    <g>
      <rect class="cls-3" x="415.26" y="88.5" width="37" height="12"/>
      <path class="cls-3" d="M450.76,90v9h-34v-9h34M453.76,87h-40v15h40v-15h0Z"/>
    </g>
  </g>
  <g>
    <path class="cls-3" d="M459.96,659.28v9h-44v-9h44M462.96,656.28h-50v15h50v-15h0Z"/>
    <text class="cls-11" transform="translate(413.37 655.14)"><tspan x="0" y="0">noise</tspan></text>
    <g>
      <rect class="cls-3" x="415.43" y="657.78" width="7" height="12"/>
      <path class="cls-3" d="M420.93,659.28v9h-4v-9h4M423.93,656.28h-10v15h10v-15h0Z"/>
    </g>
  </g>
</svg>