<svg class="logo" version="1.1" xmlns="http://www.w3.org/2000/svg" x="0px" y="0px" viewBox="0 0 3400 1000">
    <title>Logo</title>
    <g id="en-short" class="logo__short logo__short--en">
        <path display="inline" fill="#04293C"
              d="M1435.7,529.8c-43.8-41.9-100.5-68.9-163.9-68.9c-58.7,0-99.6,24.2-99.6,64.2 c0,41,28.9,57.7,86.6,68.9l102.4,20.5c117.3,23.3,190.9,69.8,190.9,181.5c0,131.3-116.4,203.9-266.3,203.9 c-146.2,0-246.7-78.2-285.8-132.2l97.8-83.8c39.1,52.1,104.3,98.7,191.8,98.7c73.5,0,116.4-28.9,116.4-75.4 c0-43.8-37.2-55.9-95-66.1l-81.9-15.8c-115.4-22.3-203-64.2-203-188.1c0-113.6,105.2-192.7,243.9-192.7 c111.7,0,201.1,41.9,255.1,99.6L1435.7,529.8z"></path>
        <path display="inline" fill="#04293C"
              d="M1945,603.4c50.3,82.9,93.1,162,93.1,162h0.9c0,0-5.6-124.8-5.6-198.3V355.7h138.7v633.1 h-141.5l-149.9-243.9c-35.4-58.7-95.9-170.4-95.9-170.4h-0.9c0,0,6.5,105.2,6.5,206.7v207.6h-139.7V355.7h142.4L1945,603.4z"></path>
        <path display="inline" fill="#04293C"
              d="M2686,529.8c-43.8-41.9-100.5-68.9-163.9-68.9c-58.7,0-99.6,24.2-99.6,64.2 c0,41,28.9,57.7,86.6,68.9l102.4,20.5c117.3,23.3,190.9,69.8,190.9,181.5c0,131.3-116.4,203.9-266.3,203.9 c-146.2,0-246.7-78.2-285.8-132.2l97.8-83.8c39.1,52.1,104.3,98.7,191.8,98.7c73.5,0,116.4-28.9,116.4-75.4 c0-43.8-37.2-55.9-95-66.1l-81.9-15.8c-115.4-22.3-203-64.2-203-188.1c0-113.6,105.2-192.7,243.9-192.7 c111.7,0,201.1,41.9,255.1,99.6L2686,529.8z"></path>
        <path display="inline" fill="#04293C"
              d="M3041.7,479.6v124.8h257.9V730h-257.9v258.8h-140.6V355.7h410.6v123.8H3041.7z"></path>
    </g>
    <g id="icon">
        <path fill="#04293C"
              d="M68.5,892h18.7V545.3H68.5V892z M509.3,422.8V123.1h-18.7v299.7c-14.1,1.7-27.1,7.2-37.8,15.4 c-1.6,1.2-3.2,2.6-4.8,3.9C447,443,446,444,445,445c-12,12-20.1,27.9-22.2,45.7H123.1v18.7h299.7c4.4,37.2,35.1,66.3,72.9,68.3 c1.4,0.1,2.9,0.1,4.3,0.1h0c0.2,0,0.4,0,0.6,0c2.5,0,4.9-0.1,7.3-0.4c0,0,0.1,0,0.1,0c16.8-1.7,31.9-8.7,43.8-19.4 c0.2-0.2,0.3-0.3,0.5-0.4c0.4-0.4,0.9-0.8,1.3-1.2c0.5-0.4,0.9-0.9,1.4-1.3c0.2-0.2,0.3-0.4,0.5-0.5c0.7-0.7,1.4-1.4,2.1-2.2 c0.1-0.1,0.2-0.3,0.4-0.4c12.3-13.8,19.9-31.9,19.9-51.9v0C577.8,460.2,547.9,427.4,509.3,422.8z M545.3,68.5v18.7H892V68.5H545.3 z"></path>
        <path fill="#C95B40"
              d="M77.8,844.4c-43,0-77.8,34.8-77.8,77.8c0,43,34.8,77.8,77.8,77.8s77.8-34.8,77.8-77.8 C155.6,879.3,120.7,844.4,77.8,844.4z M500,0c-43,0-77.8,34.8-77.8,77.8c0,43,34.8,77.8,77.8,77.8s77.8-34.8,77.8-77.8 C577.8,34.8,543,0,500,0z"></path>
        <path fill="#5298BD"
              d="M922.2,0c-43,0-77.8,34.8-77.8,77.8c0,43,34.8,77.8,77.8,77.8c43,0,77.8-34.8,77.8-77.8 C1000,34.8,965.2,0,922.2,0z M77.8,422.2C34.8,422.2,0,457,0,500c0,43,34.8,77.8,77.8,77.8c43,0,77.8-34.8,77.8-77.8 C155.6,457,120.7,422.2,77.8,422.2z"></path>
    </g>
</svg>